<svg height="800" viewBox="0 0 32 32" width="800" xmlns="http://www.w3.org/2000/svg"><path d="m20 20h10v2h-10z"/><path d="m20 24h6v2h-6z"/><path d="m30 17v-1a13.9871 13.9871 0 1 0 -10.77 13.625l-.46-1.9463a12.0419 12.0419 0 0 1 -2.77.3213c-.19 0-.375-.0186-.563-.0273a20.3044 20.3044 0 0 1 -3.4111-10.9727zm-2.0415-2h-5.9834a24.2838 24.2838 0 0 0 -2.7737-10.5586 12.0228 12.0228 0 0 1 8.7571 10.5586zm-11.3955-10.9727a20.3044 20.3044 0 0 1 3.4111 10.9727h-7.9482a20.3044 20.3044 0 0 1 3.4111-10.9727c.188-.0087.373-.0273.563-.0273s.375.0186.563.0273zm-3.7644.4141a24.2838 24.2838 0 0 0 -2.7737 10.5586h-5.9834a12.0228 12.0228 0 0 1 8.7571-10.5586zm0 23.1172a12.0228 12.0228 0 0 1 -8.7571-10.5586h5.9834a24.2838 24.2838 0 0 0 2.7737 10.5586z"/><path d="m0 0h32v32h-32z" fill="none"/></svg>