<svg fill="none" height="800" viewBox="0 0 24 24" width="800" xmlns="http://www.w3.org/2000/svg"><path d="m17 17h.01m.39-3h.6c.9319 0 1.3978 0 1.7654.1522.49.203.8794.5924 1.0824 1.0824.1522.3676.1522.8335.1522 1.7654s0 1.3978-.1522 1.7654c-.203.49-.5924.8794-1.0824 1.0824-.3676.1522-.8335.1522-1.7654.1522h-12c-.93188 0-1.39782 0-1.76537-.1522-.49005-.203-.8794-.5924-1.08239-1.0824-.15224-.3676-.15224-.8335-.15224-1.7654s0-1.3978.15224-1.7654c.20299-.49.59234-.8794 1.08239-1.0824.36755-.1522.83349-.1522 1.76537-.1522h.6m5.4 1v-11m0 11-3-3m3 3 3-3" stroke="#000" stroke-linecap="round" stroke-linejoin="round" stroke-width="2"/></svg>