<svg height="800" preserveAspectRatio="xMidYMid" viewBox="-2.5 0 261 261" width="800" xmlns="http://www.w3.org/2000/svg"><path d="m255.59672 156.506259-24.845949-107.7431812c-1.393231-5.8051283-6.733949-11.8424618-12.771282-13.4678977l-113.0839-34.83076983c-1.39323-.46441027-3.018666-.46441027-4.876307-.46441027-4.8763082 0-9.752616 1.85764106-13.235693 4.87630778l-81.03959119 75.46666802c-4.41189752 3.9474872-6.73394884 11.8424617-5.34071804 17.4153849l26.47138513 115.4059513c1.3932307 5.805128 6.7339488 11.842461 12.7712822 13.467897l105.8855399 32.973129c1.393231.46441 3.018667.46441 4.876308.46441 4.876308 0 9.752616-1.857641 13.235693-4.876308l86.612514-80.57518c4.411898-4.644103 6.733949-12.074667 5.340718-18.112001zm-138.858669-130.4992842 77.788719 23.9171287c3.018667.9288205 3.018667 2.3220513 0 3.0186667l-40.868103 9.2882053c-3.018667.9288205-7.430564-.4644103-9.52041-2.7864616l-28.329026-30.6510775c-2.554257-2.5542564-2.089847-3.7152821.92882-2.7864616zm48.530873 139.3230792c.92882 3.018667-1.161026 4.876308-4.179693 3.947487l-83.8260524-26.006974c-3.0186667-.928821-3.7152821-3.483077-1.3932308-5.572924l64.0886162-59.6767185c2.322052-2.3220513 4.876308-1.3932308 5.572923 1.6254359zm-138.162054-75.931078 68.0361038-63.3920012c2.3220513-2.3220513 5.8051282-1.857641 8.1271792.2322052l34.134155 36.920616c2.322051 2.3220513 1.857641 5.8051283-.232205 8.1271796l-68.0361041 63.3920014c-2.3220513 2.322051-5.8051283 1.857641-8.1271796-.232205l-34.1341544-36.9206164c-2.3220514-2.5542565-2.0898462-6.2695386.2322051-8.1271796zm16.4865644 100.312617-17.8797952-78.949745c-.9288205-3.018667.4644103-3.715282 2.5542564-1.393231l28.3290262 30.651078c2.3220513 2.322051 3.0186667 6.733949 2.3220513 9.752615l-12.306872 39.939283c-.9288205 3.250872-2.3220513 3.250872-3.0186667 0zm99.6160016 46.441027-88.9345655-27.632411c-3.0186667-.928821-4.8763078-4.179693-3.9474873-7.430564l14.8611285-47.834258c.9288205-3.018666 4.1796924-4.876307 7.4305642-3.947487l88.9345661 27.400206c3.018666.92882 4.876307 4.179692 3.947487 7.430564l-14.861129 47.834257c-1.161025 3.018667-4.179692 4.876308-7.430564 4.179693zm78.949745-64.785232-59.444514 55.264821c-2.322051 2.322052-3.483077 1.393231-2.554256-1.625436l12.306872-39.939283c.92882-3.018666 4.179692-6.269538 7.430564-6.733948l40.868103-9.288206c3.018667-1.161025 3.483077.232205 1.393231 2.322052zm6.501744-12.074667-48.995283 11.145846c-3.018667.928821-6.269539-1.161026-6.966154-4.179692l-20.898462-90.5600018c-.92882-3.0186668 1.161026-6.2695386 4.179692-6.966154l48.995283-11.1458464c3.018667-.9288205 6.269539 1.1610257 6.966154 4.1796924l20.898462 90.5600018c.696616 3.483077-1.161025 6.501744-4.179692 6.966154z" fill="#292933"/></svg>