<svg height="800" viewBox="0 0 24 24" width="800" xmlns="http://www.w3.org/2000/svg"><path d="m5.331 3.987h-1.319v-1.32h1.32zm7.605 16.001c-1.78-.08-3.15-.532-4.21-1.185.718 3.118 3.405 4.65 3.535 4.723l.792.437c6.063-.405 9.611-4.318 9.611-9.436v-1.109c-1.441 4.7-4.795 6.793-9.728 6.57m-8.93-10.383h1.332v2.94h1.336v-4.918h1.336v9.612c-.001 4.561 3.99 6.761 3.99 6.761-6.705 0-10.664-4.065-10.664-9.473v-10.877h1.334v7.274h1.336zm-1.336-8.271h-1.334v-1.334h1.334zm2.661 6.953h-1.32v-1.32h1.32zm1.334-1.98h-1.32v-1.32h1.32zm1.343-1.66h-1.334v-1.32h1.335zm-1.334-1.993h-1.336v-1.32h1.336zm15.473 10.606.517-1.688v-11.557c-6.045 0-6.674 2.317-6.674 4.531v12.694c0 .657-.064 1.354-.197 2.037 3.205-.583 5.296-2.565 6.354-6.016z"/></svg>